<svg version="1.1" id="Layer_1" xmlns="http://www.w3.org/2000/svg" xmlns:xlink="http://www.w3.org/1999/xlink" x="0px" y="0px"
	 width="100%" viewBox="0 0 448 448" enable-background="new 0 0 448 448" xml:space="preserve">
<path fill="#000000" opacity="1.000000" stroke="none" 
	d="
M358.235779,281.177032 
	C347.528534,294.961090 334.103455,305.017639 319.754181,313.957550 
	C305.581146,322.787750 290.387512,329.354980 272.956177,333.873932 
	C278.549774,339.108856 283.263885,343.667328 288.143372,348.041290 
	C292.111237,351.598114 296.469513,354.732422 300.318909,358.405914 
	C310.994049,368.593506 324.129333,372.620300 338.346680,373.984680 
	C346.593048,374.776031 354.403168,376.816467 361.465729,381.242096 
	C362.924011,382.155884 365.130310,382.919189 364.383667,385.292084 
	C363.792877,387.169647 361.907166,387.251831 360.212189,387.382538 
	C356.740204,387.650360 353.270477,387.947754 349.235016,388.279388 
	C350.458771,393.843323 346.704163,393.715393 342.990631,393.979340 
	C332.135468,394.750854 321.723480,393.301575 311.929626,388.320862 
	C310.274200,387.478973 308.519226,387.049744 306.621246,387.192078 
	C300.726074,387.634064 294.827148,388.025635 287.436157,388.540894 
	C293.585114,390.677307 298.406158,392.362000 302.613831,395.287170 
	C304.104248,396.323242 305.922668,397.315582 305.370697,399.572327 
	C304.801178,401.901062 302.659332,401.798431 300.892303,401.893097 
	C297.665436,402.065887 295.194336,402.601593 292.277344,405.037323 
	C288.775787,407.961121 283.143890,407.368134 278.287140,406.963806 
	C269.877106,406.263702 261.885315,404.183899 254.694977,399.603699 
	C252.254852,398.049347 249.709167,398.102142 246.999664,398.528564 
	C238.033279,399.939728 229.097900,399.906067 220.227341,397.728790 
	C218.099670,397.206573 215.615082,396.880615 215.415115,394.208374 
	C215.242188,391.897400 217.432144,390.912262 219.174408,389.986725 
	C223.349243,387.768951 227.917297,386.854553 232.548325,386.157867 
	C234.791580,385.820374 237.239029,385.987854 239.292038,383.783356 
	C234.547775,375.625031 228.374817,368.423676 222.966370,360.698914 
	C221.916092,359.198853 220.894394,357.657471 219.675339,356.300568 
	C214.128494,350.126587 211.461960,341.137726 201.185989,339.658508 
	C195.716614,338.871216 193.512924,333.361511 192.976532,328.327728 
	C192.451172,323.397614 189.973923,319.958893 186.798752,316.732910 
	C173.534058,303.255920 156.879745,297.808502 138.556503,295.132812 
	C121.305206,292.613647 106.275734,298.725800 90.693855,304.102478 
	C72.865578,310.254242 54.467300,314.138153 35.432560,314.049194 
	C32.053436,314.033417 28.810493,313.518799 25.716879,312.100311 
	C19.277117,309.147583 18.269455,304.337189 23.057173,299.021973 
	C26.213856,295.517517 30.070042,292.882263 34.093086,290.499359 
	C55.111542,278.049805 77.506462,268.886566 101.070656,262.526550 
	C109.075684,260.365936 117.077675,258.194122 125.938171,255.795395 
	C122.177330,254.145966 118.721893,254.412216 115.519066,253.666794 
	C113.902992,253.290680 112.251450,253.022202 110.680550,252.507782 
	C108.586174,251.821930 106.461319,250.908264 106.237801,248.331329 
	C105.998314,245.570480 108.062157,244.050125 110.083443,242.952972 
	C119.022346,238.100922 128.397385,234.211349 137.961548,230.770248 
	C142.325165,229.200272 146.684204,227.617554 151.602509,225.839127 
	C148.499252,218.069244 153.923264,214.784790 159.230728,211.759399 
	C169.961670,205.642487 180.217041,198.944351 188.962524,190.107010 
	C190.652740,188.399002 192.349197,186.986130 191.842010,184.206589 
	C190.910950,179.103943 193.863785,175.783905 198.164017,174.888016 
	C206.749222,173.099411 212.458054,167.746292 217.981628,161.591751 
	C223.222321,155.752396 229.267532,150.665588 235.869492,146.452438 
	C240.558990,143.459763 242.490143,139.134811 244.734573,134.379868 
	C252.420120,118.097603 258.078979,100.607643 272.308502,88.100159 
	C293.128571,69.799706 317.044098,64.279221 343.833282,69.913467 
	C352.867798,71.813606 361.313934,75.204002 368.963318,80.518181 
	C380.174713,88.306938 386.415070,99.041618 387.979492,112.475136 
	C388.312225,115.332237 389.486511,116.420959 392.121918,117.096664 
	C401.357361,119.464592 410.178864,122.856567 417.849487,128.722076 
	C419.526031,130.004089 421.865631,131.076004 421.186218,133.741302 
	C420.559265,136.200821 418.086517,135.863632 416.219696,136.288666 
	C408.114807,138.134018 400.033875,140.112411 391.873779,141.674347 
	C388.528839,142.314606 386.935974,144.025528 386.335083,147.109512 
	C384.177277,158.184341 380.509277,169.020493 380.420502,180.420990 
	C380.374054,186.388824 380.988739,192.377609 381.564575,198.331818 
	C384.515900,228.849823 377.018463,256.417358 358.235779,281.177032 
M350.009003,265.002991 
	C350.009003,265.002991 350.035278,265.027313 350.204315,264.347260 
	C355.635925,254.259552 362.336945,244.716507 362.703552,232.680206 
	C366.753448,233.429657 366.358185,237.949371 370.023529,238.210007 
	C371.932251,234.113403 369.640320,229.414520 371.358032,225.419189 
	C373.750854,225.322922 372.481232,228.193054 374.412445,228.369049 
	C376.007721,219.446472 376.652985,210.472961 375.537292,201.554855 
	C373.528046,185.494949 374.651642,169.738205 378.038269,153.948105 
	C380.792053,141.108719 382.123871,141.309082 368.618622,141.107162 
	C365.430450,141.059494 361.343231,140.897949 360.738800,137.324539 
	C360.112213,133.619843 364.532104,133.897171 366.936829,132.932983 
	C369.431519,131.932724 371.773895,130.729736 374.074890,129.386719 
	C379.566772,126.181297 381.940247,120.954865 381.569183,115.079941 
	C380.884369,104.237587 376.800079,94.758003 368.143829,87.617889 
	C360.618195,81.410378 351.766449,78.144882 342.464691,75.992363 
	C323.623535,71.632332 305.798096,74.591599 288.974854,83.959023 
	C287.998444,84.502701 287.219513,85.401123 286.348663,86.134445 
	C290.072815,90.225700 284.925720,90.327499 283.594391,91.207520 
	C277.980957,94.917938 273.024384,99.335243 268.449341,104.175034 
	C266.437653,106.303139 263.576569,108.377686 265.526611,112.265022 
	C266.092102,113.392303 264.788361,114.685005 263.890594,115.707031 
	C258.226715,122.154900 254.120590,129.532166 250.790863,137.406967 
	C248.783127,142.155243 246.727570,146.913651 242.287323,150.095261 
	C226.917374,161.108444 214.368729,175.235428 200.787964,188.192566 
	C190.219635,198.275620 179.183060,207.445587 166.099167,214.039642 
	C163.558578,215.320068 160.999237,216.729355 158.440979,219.916977 
	C164.983322,219.916977 170.427536,219.916977 176.219559,219.916977 
	C174.350174,222.718750 171.553680,222.894913 169.435593,224.474182 
	C181.196320,222.245850 193.209717,222.822037 204.624161,220.231003 
	C205.314575,218.185425 203.549118,216.092133 206.097061,214.655075 
	C209.903610,218.842987 215.409225,216.808868 220.459564,217.540237 
	C219.883621,220.148361 218.581619,221.257675 216.830704,221.183670 
	C210.342804,220.909485 204.517105,223.353592 198.534119,225.239227 
	C196.984802,225.727539 194.697876,225.490662 194.691742,227.597885 
	C194.684601,230.051178 197.006332,230.769852 199.016998,230.865616 
	C201.996185,231.007477 205.001068,230.815140 207.984039,230.607391 
	C210.355103,230.442261 212.703491,229.426376 215.876663,230.397659 
	C212.522522,234.995850 202.947372,233.547684 205.439651,242.414505 
	C211.243668,243.830322 217.187836,242.313660 223.584259,241.623856 
	C221.712723,245.408005 218.660599,245.188385 216.265213,245.952530 
	C212.076508,247.288757 208.688538,248.715759 212.077011,253.927856 
	C209.940002,254.387177 209.015076,253.211838 208.440109,252.113663 
	C205.093170,245.721161 198.215927,243.003922 193.283386,238.336472 
	C189.285400,234.553329 186.719223,232.535431 189.784882,227.113052 
	C182.887085,226.630707 176.920471,229.514725 170.574661,229.316269 
	C164.460754,229.125092 158.342484,228.633789 152.390030,231.248001 
	C146.613846,233.784821 140.472595,235.477020 134.610733,237.835983 
	C129.000031,240.093872 123.144119,241.940781 117.172859,245.718369 
	C127.126244,247.150436 135.873657,244.870148 144.657104,245.697296 
	C140.926010,248.024445 136.141724,246.080200 132.117523,249.715530 
	C147.472076,249.833191 161.739258,245.907150 176.330963,245.038055 
	C166.704651,250.328796 155.991180,251.346771 145.683456,254.137711 
	C146.574295,254.529053 147.474533,254.710007 148.376221,254.717468 
	C156.273010,254.782837 163.914062,253.117905 171.490311,251.139084 
	C175.195251,250.171402 178.819092,248.858505 182.716644,248.921158 
	C184.674820,248.952637 186.419601,249.429672 186.834427,251.711731 
	C187.239197,253.938461 185.869263,254.931580 184.086395,255.875687 
	C181.843750,257.063232 178.965012,256.768280 176.488312,258.905365 
	C183.140640,259.910706 188.874664,256.094910 194.643936,257.372742 
	C194.008301,263.726074 190.573700,267.072968 184.788727,268.075378 
	C188.575073,273.365936 215.367035,268.315826 223.023514,261.502380 
	C223.544662,259.483734 220.730164,258.088837 222.160172,255.612976 
	C225.565536,257.721863 228.959488,259.313660 233.220612,259.050659 
	C247.279144,258.182922 258.131744,251.542526 267.109863,241.200180 
	C268.835236,239.212646 270.850037,237.434219 269.556610,234.213806 
	C268.927612,232.647781 270.254700,231.029953 271.667145,230.690338 
	C275.420532,229.787811 278.966339,228.309525 282.476868,226.624588 
	C283.236816,228.620941 282.121948,229.311295 281.352936,230.098145 
	C278.938477,232.568771 275.616028,233.960526 273.840637,237.258224 
	C267.125458,249.731186 256.929901,257.867371 243.243622,261.868988 
	C238.249649,263.329163 232.986237,262.685089 228.106812,264.758270 
	C209.437973,272.690277 190.125443,277.944427 169.672852,278.189667 
	C167.689438,278.213470 165.963089,278.942932 165.539047,281.081635 
	C165.052124,283.537659 166.549942,285.358521 168.347855,286.551971 
	C175.457291,291.271240 184.331253,293.480347 189.217163,301.349121 
	C189.291077,301.468140 189.500641,301.541443 189.657486,301.564850 
	C193.987061,302.210510 194.879562,305.466797 195.700989,309.064667 
	C197.470322,316.814331 198.670166,324.930328 205.406265,330.377594 
	C207.839874,332.345551 209.770767,336.054321 213.548996,334.923309 
	C217.332596,333.790710 220.927979,331.882782 224.424271,329.980896 
	C227.510727,328.301910 230.205261,324.869690 233.633820,329.550598 
	C234.101425,330.189026 235.847946,330.093811 236.978409,330.011139 
	C245.439880,329.392426 253.961472,329.145691 262.339569,327.926056 
	C282.719482,324.959229 301.516541,317.362579 318.860260,306.458405 
	C341.301819,292.349121 360.021088,274.781189 369.122833,248.909866 
	C370.850769,243.998215 369.449585,241.554214 363.758545,240.014603 
	C362.047394,249.917923 358.448730,258.796661 350.009003,265.002991 
M231.628952,337.324921 
	C228.967499,337.665314 226.038177,336.277435 223.594254,338.374847 
	C223.772354,340.749084 225.463074,342.045227 226.632965,343.576202 
	C233.496323,352.557831 240.859421,361.190063 247.239929,370.498169 
	C252.671082,378.421265 260.310760,381.922150 268.989197,384.217834 
	C270.645050,384.655853 272.275421,384.925598 273.528839,383.289337 
	C277.535614,378.058838 283.506500,377.090179 289.415375,376.016754 
	C291.785950,375.586090 294.320221,375.644928 296.279449,373.760925 
	C295.891907,373.092773 295.732117,372.578735 295.389801,372.261627 
	C283.436798,361.188477 271.450836,350.150818 259.514954,339.059296 
	C257.619141,337.297607 255.451538,337.108582 253.050659,337.154510 
	C246.232910,337.284943 239.412735,337.289459 231.628952,337.324921 
M46.448021,294.588654 
	C48.176003,293.999786 49.867287,293.249695 51.637592,292.846771 
	C70.739044,288.499207 89.867851,284.270752 108.954826,279.861084 
	C115.108131,278.439453 121.145164,276.519318 126.704956,273.409851 
	C130.518066,271.277313 130.623672,267.654144 129.463501,264.239105 
	C128.282990,260.764221 125.392746,263.129059 123.463028,263.509888 
	C99.052322,268.327271 75.914764,276.885803 53.695938,287.946411 
	C50.122974,289.725037 46.148327,291.122925 43.103939,294.061493 
	C44.140759,295.089539 44.973927,294.807465 46.448021,294.588654 
M387.396271,127.294594 
	C387.307739,126.367912 388.378296,125.470314 387.118439,124.133163 
	C381.325897,128.943069 375.774323,134.307266 368.054047,136.345413 
	C373.320221,137.357468 378.118347,136.248978 383.033875,134.989578 
	C387.213989,133.918579 388.596893,131.954803 387.396271,127.294594 
z"/>
<path fill="#000000" opacity="1.000000" stroke="none" 
	d="
M324.693665,143.797943 
	C316.290375,141.040817 312.623566,134.793686 314.607666,127.186806 
	C316.388519,120.359192 323.800781,115.645325 330.283112,117.217888 
	C337.867554,119.057816 342.391418,125.754631 341.168488,133.331802 
	C340.009857,140.510590 333.403320,144.855927 324.693665,143.797943 
z"/>
<path fill="#000000" opacity="1.000000" stroke="none" 
	d="
M279.962158,154.832489 
	C281.688080,154.308899 282.812897,153.023148 284.633850,153.398636 
	C286.868073,156.315277 284.165466,158.542938 283.200195,161.059860 
	C285.973694,161.572769 288.209167,159.571655 290.952484,160.381531 
	C291.607086,162.379532 290.975769,165.003143 293.744598,165.975494 
	C290.691742,169.542221 287.531097,169.572510 284.131195,168.624542 
	C282.542908,168.181732 280.934174,167.388824 279.352448,167.430328 
	C275.555969,167.529984 272.898499,166.822342 274.283081,161.862823 
	C266.554718,162.585449 259.220886,163.515030 252.943604,158.266983 
	C256.246948,155.036407 264.170746,154.403839 267.531891,154.547073 
	C271.525177,154.717224 275.571442,157.259674 279.962158,154.832489 
z"/>
<path fill="#000000" opacity="1.000000" stroke="none" 
	d="
M349.998718,264.988647 
	C342.992065,272.141876 334.801025,277.715607 326.143585,282.622650 
	C324.812836,283.376892 323.077820,284.041504 321.095856,282.693115 
	C322.475372,279.106293 324.636627,276.038879 327.298767,272.855743 
	C328.395752,275.605865 325.818115,276.770050 325.732208,279.533813 
	C334.509674,275.842102 338.770935,268.220306 343.441986,261.312225 
	C346.460449,262.663269 343.832550,264.994171 345.165924,266.351257 
	C346.827728,266.860382 347.898560,265.299561 349.700684,265.088928 
	C350.035278,265.027313 350.009003,265.002991 349.998718,264.988647 
z"/>
<path fill="#000000" opacity="1.000000" stroke="none" 
	d="
M305.734192,256.795807 
	C300.215240,260.871796 294.760620,263.977753 287.677429,262.921265 
	C289.060974,259.278290 292.298706,256.219788 297.855743,252.992294 
	C299.633148,253.920074 296.878815,255.368698 298.535278,256.548920 
	C304.768250,254.706451 308.702789,249.051926 314.364960,245.833984 
	C313.291565,250.830780 309.650360,253.697250 305.734192,256.795807 
z"/>
</svg>