<svg version="1.1" id="Layer_1" xmlns="http://www.w3.org/2000/svg" xmlns:xlink="http://www.w3.org/1999/xlink" x="0px" y="0px"
	 width="100%" viewBox="0 0 480 736" enable-background="new 0 0 480 736" xml:space="preserve">
<path fill="#000000" opacity="1.000000" stroke="none" 
	d="
M203.279160,560.000000 
	C203.570312,582.195068 202.737839,603.803162 198.055481,625.091309 
	C197.041107,629.703125 196.161438,634.401306 193.045425,638.489441 
	C185.605499,586.984802 180.934921,535.141052 167.327393,484.622406 
	C158.394791,505.115631 155.123596,527.139893 149.934845,548.580933 
	C146.186081,548.317871 147.402695,545.163391 145.856430,543.316040 
	C144.381607,547.308899 146.188904,551.618042 143.841919,556.206482 
	C140.295715,549.763245 139.643402,543.488525 138.973282,537.386108 
	C136.443283,514.346497 135.940125,491.210358 136.325104,468.047363 
	C136.349487,466.580292 136.291885,464.942017 135.686600,463.660004 
	C127.854095,447.070709 126.107338,429.063873 123.889702,411.275513 
	C119.784706,378.347809 118.199570,345.226654 119.019203,312.055664 
	C119.813438,279.911896 121.860558,247.859528 130.685974,216.667343 
	C133.793671,205.683609 138.010269,195.287018 145.269318,186.247681 
	C152.391068,177.379333 152.804565,166.943710 151.302139,156.273087 
	C149.392731,142.711960 147.487747,129.173203 151.672821,115.677666 
	C157.418243,97.150497 166.918793,81.459709 186.817764,75.994415 
	C209.708176,69.707504 231.352829,74.270264 251.443802,86.595993 
	C253.994659,88.160927 256.523651,89.842728 258.773926,91.802109 
	C267.834381,99.691292 279.296204,99.770126 290.195465,101.715355 
	C303.963562,104.172592 317.733093,106.622238 331.490692,109.137115 
	C332.886505,109.392265 334.529541,109.332306 335.648285,111.107819 
	C334.655182,113.040237 332.530518,113.207565 330.768005,113.744049 
	C310.228516,119.995934 289.918335,127.175339 268.370605,129.414688 
	C266.288635,129.631042 264.639496,130.785263 263.015961,131.954788 
	C254.772263,137.893250 246.815460,144.272385 237.853165,149.127167 
	C234.560684,150.910675 235.505829,153.138367 236.560150,155.416962 
	C241.946625,167.058228 247.570221,178.591583 252.837280,190.285919 
	C262.305664,211.308395 270.316650,232.834671 273.650360,255.800629 
	C276.659698,276.532013 276.014893,297.032410 268.532776,316.877502 
	C267.403351,319.873077 268.102966,321.456940 270.528381,323.065369 
	C276.737305,327.182983 282.701935,329.141663 289.885925,324.517334 
	C297.821289,319.409302 307.040314,316.407379 313.963348,309.532623 
	C316.080444,307.430298 316.660339,305.731720 315.499939,303.019043 
	C314.193268,299.964478 313.260040,296.747681 312.211823,293.585724 
	C310.993561,289.910675 310.945648,286.405670 313.691071,283.258148 
	C314.918823,281.850525 315.383972,280.136902 315.686646,278.251617 
	C317.633881,266.122589 329.420837,260.253723 340.196716,266.075348 
	C344.716339,268.517059 348.375488,271.951935 351.167603,276.700806 
	C348.244751,277.525177 346.894623,275.610352 345.181580,274.849854 
	C341.670502,273.291138 338.216919,271.551270 334.302856,271.414246 
	C329.736511,271.254395 328.279877,273.037323 328.198669,277.735229 
	C328.083893,284.378693 328.758209,291.055359 327.362152,297.659302 
	C326.698639,300.797913 327.959290,303.470245 329.829742,305.993835 
	C333.163239,305.363525 334.412109,302.761810 335.856415,300.361176 
	C342.839661,288.754211 356.939209,286.586578 367.089203,295.574921 
	C367.549835,295.982849 367.835693,296.588165 368.512634,297.534363 
	C365.605835,298.174988 363.783081,296.436218 361.749359,295.809540 
	C354.881317,293.693085 351.997345,294.965546 348.886688,301.454529 
	C348.265472,302.750427 347.108276,303.852600 346.020508,304.850311 
	C341.972687,308.562897 337.931396,312.060669 337.109833,318.145294 
	C336.603577,321.895020 333.485809,323.421631 329.651978,323.349457 
	C327.705444,323.312805 325.530365,322.679474 323.859985,324.148590 
	C321.446167,326.271545 318.951508,328.843689 319.575500,332.168976 
	C320.229889,335.656219 323.795288,334.519775 326.293030,334.885529 
	C327.083221,335.001251 327.978027,334.898346 328.600769,336.205780 
	C325.385590,340.258118 320.838898,339.717712 316.561096,339.069580 
	C311.215393,338.259613 309.340179,334.331177 309.478790,328.728424 
	C297.757996,332.942230 287.808319,339.052887 278.826935,346.866058 
	C274.556244,350.581268 270.246033,354.255096 265.857117,357.829041 
	C262.610596,360.472656 259.039307,363.379608 255.059433,363.902466 
	C246.045349,365.086731 243.138245,371.346436 240.311844,378.542419 
	C233.863251,394.960449 226.395172,410.983246 223.728119,428.688202 
	C222.683792,435.620880 219.574280,442.029510 216.490051,448.325256 
	C213.191299,455.058838 209.897049,461.798431 206.408890,468.434540 
	C200.739563,479.220276 198.741013,490.417664 200.268219,502.662354 
	C202.618317,521.504395 203.387497,540.494507 203.279160,560.000000 
M247.002014,105.007164 
	C247.002014,105.007164 247.017487,105.031044 246.876343,104.336624 
	C245.992813,101.401108 243.906799,99.635490 241.224365,98.378830 
	C232.620300,94.348022 224.273026,95.850609 216.274704,99.921555 
	C212.140411,102.025818 207.931213,103.252991 203.383667,103.302055 
	C196.401199,103.377388 189.441116,103.580826 182.457703,102.479622 
	C173.344635,101.042587 166.952713,106.632744 167.296677,115.133217 
	C167.838425,128.521530 180.494858,143.949554 193.570221,146.438690 
	C203.710480,148.369095 213.691956,147.908966 223.194901,142.877625 
	C234.007645,137.152847 243.869293,130.122498 253.213226,122.306686 
	C257.302216,118.886414 261.385315,115.408661 264.406250,110.959106 
	C266.062988,108.518898 267.295532,105.500099 264.008362,103.573082 
	C260.214081,101.348778 256.027008,99.794571 251.881241,97.890030 
	C250.376007,101.468590 252.430649,105.209335 250.302689,108.225243 
	C248.351807,107.709686 248.237976,105.795692 247.002014,105.007164 
M244.840866,194.589981 
	C239.298904,182.473938 234.509842,169.975250 227.610382,158.541153 
	C224.830963,153.934982 225.082825,151.134979 230.178696,148.998398 
	C231.536072,148.429291 232.612595,147.190308 233.818054,146.258881 
	C225.838593,151.061539 217.123718,153.562241 207.396225,155.736893 
	C223.333282,166.893616 234.926666,180.264160 240.958267,197.980865 
	C246.732071,214.940308 250.585434,232.192032 250.178085,250.622849 
	C247.148361,249.695862 246.891556,247.651566 246.007843,246.154160 
	C233.926407,225.682602 219.574097,207.706802 196.134720,199.233475 
	C190.054123,197.035355 185.424744,192.609146 181.564850,187.421829 
	C176.555054,180.689178 172.581955,173.395828 169.687546,165.530563 
	C167.657166,160.013184 165.781464,154.438873 163.836685,148.889999 
	C166.816559,163.201218 163.207108,176.581009 157.659714,189.720078 
	C159.349304,190.219437 159.982925,190.599854 160.586212,190.556671 
	C174.316010,189.573807 183.884705,196.773834 192.344955,206.417786 
	C204.051651,219.762421 209.871292,235.757050 213.232544,252.780212 
	C218.739532,280.670410 215.315857,308.136658 208.450180,335.319885 
	C201.077744,364.509552 188.927261,391.960815 177.316071,419.600525 
	C173.867203,427.810394 170.532913,436.068390 166.770035,445.218842 
	C173.589462,442.366455 176.699310,436.607635 182.601517,432.698364 
	C184.249481,441.951874 181.741272,450.836090 186.052917,459.428497 
	C187.214539,457.149658 188.079224,455.571045 188.839752,453.943756 
	C200.406860,429.193939 212.004807,404.458374 223.505081,379.677490 
	C236.199631,352.323181 248.588272,324.843475 258.267151,296.223389 
	C262.591339,283.436981 265.007355,270.544159 263.150177,256.979523 
	C260.209930,235.503738 253.135071,215.272659 244.840866,194.589981 
z"/>
<path fill="#000000" opacity="1.000000" stroke="none" 
	d="
M229.009216,115.017410 
	C223.508743,109.988777 223.508743,109.988777 224.247375,105.424278 
	C226.975998,107.127686 229.441772,110.318604 232.959396,107.273537 
	C236.163193,104.500130 233.942352,101.519455 232.877487,98.266045 
	C239.363083,97.168564 242.679184,101.398094 246.724182,104.864380 
	C247.017487,105.031044 247.002014,105.007164 246.992188,104.997536 
	C248.954056,114.469582 244.794769,118.486824 235.045898,116.466537 
	C233.259460,116.096313 231.513657,115.529877 229.368896,115.025749 
	C228.988708,114.997482 229.009216,115.017410 229.009216,115.017410 
z"/>
<path fill="#000000" opacity="1.000000" stroke="none" 
	d="
M228.975220,114.990860 
	C232.943634,118.234352 237.796432,117.834785 243.198868,117.518242 
	C236.946442,123.383141 222.960220,118.687729 220.782440,110.530594 
	C223.953445,111.185318 225.179672,114.832214 228.657532,114.967392 
	C229.009216,115.017410 228.988708,114.997482 228.975220,114.990860 
z"/>
</svg>